<svg width="60" height="60" viewBox="0 0 60 60" fill="none" xmlns="http://www.w3.org/2000/svg">
<path d="M50 54.1668C50 57.3885 41.045 60.0002 30 60.0002C18.955 60.0002 10 57.3885 10 54.1668C10 50.9468 18.9533 48.3335 30 48.3335C41.045 48.3335 50 50.9452 50 54.1668Z" fill="#99AAB5"/>
<path d="M10 52.5H50V54.1667H10V52.5Z" fill="#99AAB5"/>
<path d="M50 52.4998C50 55.7215 41.045 58.3332 30 58.3332C18.955 58.3332 10 55.7215 10 52.4998C10 49.2782 18.9533 46.6665 30 46.6665C41.045 46.6665 50 49.2782 50 52.4998Z" fill="#E6E7E8"/>
<path d="M48.3337 51.6665C48.3337 54.4265 40.1237 56.6665 30.0003 56.6665C19.8753 56.6665 11.667 54.4282 11.667 51.6665C11.667 48.9048 19.8737 46.6665 30.0003 46.6665C40.1253 46.6665 48.3337 48.9048 48.3337 51.6665Z" fill="#F8312F"/>
<path d="M11.667 13.3335H48.3337V51.6668H11.667V13.3335Z" fill="#F8312F"/>
<path d="M48.3337 38.3333C48.3337 41.5533 40.1237 44.1667 30.0003 44.1667C19.8753 44.1667 11.667 41.555 11.667 38.3333C11.667 35.1117 19.8737 32.5 30.0003 32.5C40.1237 32.5 48.3337 35.1117 48.3337 38.3333Z" fill="#FF7E30"/>
<path d="M11.667 16.6665H48.3337V38.3332H11.667V16.6665Z" fill="#FF7E30"/>
<path d="M48.333 23.3333C48.333 26.5533 40.123 29.1667 29.9996 29.1667C19.8746 29.1667 11.668 26.555 11.668 23.3333C11.668 20.1117 19.8746 17.5 29.9996 17.5C40.123 17.5 48.333 20.1117 48.333 23.3333Z" fill="#F8312F"/>
<path d="M11.667 6.6665H48.3337V23.3332H11.667V6.6665Z" fill="#F8312F"/>
<path d="M50 7.49984C50 10.7215 41.045 13.3332 30 13.3332C18.955 13.3332 10 10.7215 10 7.49984C10 4.27817 18.955 1.6665 30 1.6665C41.045 1.6665 50 4.27817 50 7.49984Z" fill="#99AAB5"/>
<path d="M10 5.8335H50V7.50016H10V5.8335Z" fill="#99AAB5"/>
<path d="M50 5.83333C50 9.055 41.045 11.6667 30 11.6667C18.955 11.6667 10 9.055 10 5.83333C10 2.61167 18.955 0 30 0C41.045 0 50 2.61167 50 5.83333Z" fill="#E6E7E8"/>
<path d="M47.0837 5.83317C47.0837 8.13484 39.437 9.99984 30.0003 9.99984C20.5637 9.99984 12.917 8.13484 12.917 5.83317C12.917 3.5315 20.5637 1.6665 30.0003 1.6665C39.437 1.6665 47.0837 3.5315 47.0837 5.83317Z" fill="#CCD6DD"/>
<path d="M45.4163 5.83333C45.4163 7.675 38.5163 9.16667 29.9997 9.16667C21.483 9.16667 14.583 7.675 14.583 5.83333C14.583 3.99167 21.4847 2.5 29.9997 2.5C38.5163 2.5 45.4163 3.99167 45.4163 5.83333Z" fill="#E6E7E8"/>
<path d="M40 5.83333C40 6.98333 35.5233 7.91667 30 7.91667C24.4767 7.91667 20 6.98333 20 5.83333C20 4.68333 24.4767 3.75 30 3.75C35.5233 3.75 40 4.68333 40 5.83333Z" fill="#CCD6DD"/>
<path d="M29.9997 7.0835C34.3719 7.0835 37.9163 6.52385 37.9163 5.8335C37.9163 5.14314 34.3719 4.5835 29.9997 4.5835C25.6274 4.5835 22.083 5.14314 22.083 5.8335C22.083 6.52385 25.6274 7.0835 29.9997 7.0835Z" fill="#E6E7E8"/>
<path d="M41.6663 35C41.6663 41.9033 36.443 47.5 29.9997 47.5C23.5563 47.5 18.333 41.9033 18.333 35C18.333 28.0967 23.5563 22.5 29.9997 22.5C36.443 22.5 41.6663 28.0967 41.6663 35Z" fill="#FFCC4D"/>
<path d="M38.3337 34.9999C38.3337 40.2599 34.602 44.5249 30.0003 44.5249C25.3987 44.5249 21.667 40.2582 21.667 34.9999C21.667 29.7416 25.397 25.4766 30.0003 25.4766C34.6037 25.4766 38.3337 29.7399 38.3337 34.9999Z" fill="#9E643D"/>
</svg>
