<svg width="70" height="70" viewBox="0 0 70 70" fill="none" xmlns="http://www.w3.org/2000/svg">
<path d="M68.4085 16.4499C68.0858 16.2475 67.178 16.1491 67.003 15.9139C66.7897 15.6296 67.1561 15.0827 67.2436 14.8038C67.5007 14.0382 67.4679 13.1905 67.1452 12.4468C66.7241 11.4733 65.4499 10.3686 64.4983 9.89832C63.596 9.45535 62.5897 9.18738 61.5835 9.24754C60.6101 9.3077 59.921 10.1444 58.9202 9.85457C58.1655 9.64129 57.7171 8.81551 56.9186 8.6241C55.6171 8.31238 54.1515 8.91941 53.2218 9.8327C49.9241 13.0647 49.3116 18.6975 49.6726 23.078C49.7655 24.1389 49.9515 25.1944 50.2686 26.228C50.7936 27.9507 52.4015 29.121 54.0093 29.7554C57.1319 30.9968 59.7843 29.2358 62.3546 27.6116C64.728 26.1186 67.6046 24.396 69.0429 21.9022C70.0382 20.1796 70.3499 17.6694 68.4085 16.4499Z" fill="#ED6C30"/>
<path d="M58.3566 31.5819C58.1652 31.0187 57.8699 30.5319 57.5035 30.171C57.2683 29.9358 57.2738 29.5421 57.3066 28.9296C57.3504 28.1312 57.405 27.0374 56.3824 26.3265C56.3222 26.2882 56.2675 26.239 56.2019 26.1952C55.9722 26.0202 55.7097 25.8233 55.4144 25.7085C55.1683 25.6155 54.9332 25.5827 54.7254 25.5608C54.6433 25.5499 54.5668 25.539 54.4957 25.528C54.4793 25.4515 54.4574 25.3749 54.43 25.3093C54.0527 24.3304 53.1066 23.6577 51.898 23.5101C51.7066 23.4882 51.4824 23.4663 51.2527 23.4663C50.9082 23.4663 50.6074 23.5046 50.3613 23.5866C50.0605 23.6851 49.8363 23.8655 49.6613 24.0187C49.6132 24.0601 49.5639 24.1002 49.5136 24.139C49.4972 24.128 49.4863 24.1171 49.4699 24.1116C49.4097 24.0733 49.3496 24.0405 49.2894 24.0077C48.7699 23.7452 48.1465 23.7069 47.8183 23.7015C46.205 23.7015 45.248 25.014 44.909 26.1405C44.8871 26.2171 44.8488 26.2937 44.8215 26.3702C44.7941 26.4413 44.7613 26.5179 44.7285 26.5999C44.1652 26.7585 43.3941 27.0593 43.2574 27.1522C42.273 27.803 41.6222 28.7655 41.48 29.7937L41.4636 29.9194C41.4363 30.1437 41.398 30.4226 41.305 30.5046C41.2394 30.5483 40.9715 30.5538 40.8129 30.5647C40.6215 30.5702 40.4246 30.5812 40.2277 30.6249C39.4019 30.8054 38.7074 31.2155 38.1605 31.8554C37.641 32.4569 37.5918 33.0585 37.5425 33.6437L37.5261 33.8843C37.5207 33.9718 37.5152 34.0757 37.5043 34.1468C37.4605 34.1577 37.3894 34.1741 37.291 34.1905C36.9574 34.2397 36.6129 34.278 36.2683 34.3163C35.3222 34.4147 34.3488 34.5132 33.4246 34.9671C33.0144 35.164 32.7465 35.4374 32.5113 35.6835C32.4129 35.7765 32.3199 35.8749 32.2105 35.9733C31.784 36.3397 31.3027 36.7827 30.9636 37.439C30.8871 37.5921 30.8105 37.7397 30.7722 37.778C30.5918 37.7233 30.3785 37.6304 30.1488 37.5374C29.9847 37.4718 29.8207 37.4007 29.6566 37.3515C29.2574 37.2257 28.8636 37.2038 28.5191 37.1874L28.2293 37.171C28.1582 37.1655 28.0871 37.1601 28.016 37.1601C26.8949 37.1601 25.9925 37.778 25.4074 38.2429C25.0519 38.5218 24.8277 38.9593 24.609 39.3804C24.4996 39.5827 24.33 39.9108 24.2207 40.0257C24.0347 39.9983 23.7504 39.8452 23.5371 39.7304C23.3949 39.6593 23.2636 39.5882 23.1433 39.5335C22.5772 39.2822 21.9508 39.1986 21.3386 39.2929C19.9824 39.4788 18.6097 40.228 17.7511 41.2288C17.6527 41.3437 17.5652 41.4694 17.4722 41.5952C17.3847 41.721 17.2371 41.9343 17.166 41.9671C17.0785 41.9671 16.9472 41.8468 16.7996 41.7155C16.7176 41.6499 16.641 41.5733 16.559 41.5132C15.9074 41.0014 15.1015 40.7258 14.273 40.7312C13.5129 40.7312 12.7746 40.9499 12.1293 41.371C11.8722 41.5351 11.6644 41.7702 11.4676 41.9944C11.3418 42.1366 11.1011 42.4046 11.0027 42.4319C10.7676 42.4319 10.3629 42.2788 10.0402 42.153C9.7449 42.0437 9.46599 41.9397 9.21443 41.8851C8.79333 41.7976 8.15349 41.6718 7.5738 41.6718C7.37693 41.6718 7.20193 41.6827 7.04333 41.7155C5.7199 41.9562 4.34177 43.1265 3.9863 44.3187C3.84411 44.7999 3.81677 45.3249 3.80036 45.7952C3.7949 45.9429 3.78396 46.096 3.77302 46.2382C3.75661 46.4733 3.71833 46.539 3.71833 46.539C3.70193 46.5444 3.55427 46.5936 3.4449 46.6319L3.18786 46.7194C0.951146 47.5562 0.442552 50.0062 0.273021 50.8101C-0.0441663 52.3577 0.415209 53.7686 1.53083 54.6819C1.75505 54.8624 1.9574 54.9663 2.10505 55.0483C2.15427 55.0702 2.20896 55.103 2.24177 55.1194C2.2363 55.1304 2.24724 55.1796 2.25271 55.278C2.26365 55.6062 2.2199 55.9616 2.17068 56.339C2.13786 56.6069 2.10505 56.8804 2.08865 57.1429C2.03943 57.9577 2.3238 58.7561 2.85974 59.3358C3.32458 59.839 3.90427 59.9866 4.36911 60.096C4.52771 60.1397 4.6863 60.1726 4.83943 60.2327C5.06365 60.3202 5.11286 60.3694 5.11833 60.3749C5.12927 60.4022 5.15661 60.5444 5.17849 60.6538L5.21677 60.8616C5.35896 61.6108 5.68708 62.1632 6.34333 62.7593C7.21286 63.5577 8.6238 63.8366 9.57536 63.8366C9.67927 63.8366 9.78318 63.8366 9.88161 63.8311C10.1386 63.8202 10.4066 63.7108 10.6582 63.6124C10.7566 63.5686 10.9152 63.5085 11.0136 63.4811C11.0683 63.5686 11.2051 63.7874 11.2926 63.9296C11.5004 64.2687 11.7136 64.6186 12.0144 64.8483C12.9605 65.5702 14.2402 65.9968 15.4433 65.9968C15.5582 65.9968 15.6676 65.9913 15.7824 65.9858C16.4551 65.9366 17.2972 65.6468 17.9371 65.253C18.041 65.1929 18.1285 65.1272 18.216 65.0726C18.4402 64.9194 18.5058 64.8811 18.5879 64.8811C18.6426 64.8811 18.7191 64.8921 18.8066 64.9249C18.9597 64.9741 19.1402 65.078 19.3261 65.1929C19.5941 65.3569 19.9058 65.5374 20.2777 65.6249C20.6715 65.7233 21.1199 65.7726 21.5793 65.7726C22.0277 65.7726 22.4761 65.7233 22.8644 65.6304C23.6847 65.439 24.5543 65.0015 25.134 64.5093C25.3582 64.3179 25.5168 64.0663 25.6754 63.8257C25.7629 63.689 25.9105 63.4593 25.998 63.3936H26.0035C26.0144 63.3936 26.0254 63.3882 26.0418 63.3882C26.2113 63.3882 26.4629 63.4319 26.6816 63.4702C26.8511 63.503 27.0043 63.5304 27.1191 63.5358C27.2504 63.5468 27.3871 63.5632 27.5183 63.5796C27.8027 63.6179 28.098 63.6507 28.3988 63.6507C28.6668 63.6507 28.9019 63.6179 29.1261 63.5632C30.2144 63.2843 31.516 62.3655 32.041 61.2554C32.134 61.2444 32.2269 61.239 32.3199 61.228C32.4675 61.2116 32.6152 61.1952 32.7683 61.1952C32.8066 61.1952 32.8394 61.2007 32.8777 61.2007C33.0691 61.2171 33.266 61.2225 33.4629 61.2225C34.0425 61.2225 34.584 61.1624 35.1199 61.0257C36.1371 60.7686 37.5808 60.2382 38.423 58.5757C38.5488 58.3241 38.6035 58.0397 38.6527 57.7936C38.6746 57.6515 38.7183 57.4436 38.7511 57.3835C38.8386 57.3452 39.309 57.3233 39.4894 57.3179L39.6918 57.3069C41.2613 57.2085 42.0761 56.5304 43.0496 55.5843C43.4816 55.1632 44.0175 54.6327 44.2254 54.0312C44.3457 53.6866 44.3511 53.3476 44.3566 53.0413C44.3566 52.8499 44.3675 52.664 44.4004 52.5163C44.4879 52.1554 44.7777 52.0351 45.4668 51.8272C45.6636 51.7671 45.866 51.7069 46.0519 51.6358C47.3972 51.1163 48.5621 50.0882 49.2402 48.814C49.4918 48.3382 49.5902 47.8733 49.6722 47.4632C49.716 47.2663 49.7543 47.0585 49.8199 46.8507C49.8691 46.703 49.9238 46.5772 49.9785 46.4515C50.1316 46.1069 50.323 45.6804 50.2629 45.0952C50.2465 44.9202 50.2082 44.7507 50.1644 44.5702C50.1535 44.5155 50.1371 44.4663 50.1261 44.4116C50.5418 44.3296 51.0066 44.2093 51.1215 44.1601C51.6246 43.9304 52.0949 43.6077 52.505 43.1976C53.1175 42.5851 53.6754 41.6499 54.009 40.6929C54.0691 40.5069 54.08 40.3046 54.091 40.1132C54.0965 40.064 54.0965 39.9983 54.1019 39.9437C54.2168 39.878 54.3808 39.8397 54.616 39.7851C55.0261 39.6976 55.5402 39.5827 55.9613 39.1343C56.8472 38.2046 56.88 36.821 56.8144 36.0772C56.8144 36.0608 56.8144 36.0444 56.809 36.028C57.323 35.8421 57.7441 35.503 58.0613 35.0218C58.6465 34.1522 58.7668 32.7905 58.3566 31.5819Z" fill="#FCC21B"/>
<path d="M54.595 20.8359C53.3044 20.814 54.1849 17.1827 54.4364 16.3132C54.5841 15.8046 54.9614 14.9023 55.4919 14.3171C55.9458 13.814 56.5091 13.5515 57.1216 13.978C58.7677 15.1265 56.2739 20.8632 54.595 20.8359ZM63.2575 21.2241C62.7981 21.5632 62.2294 21.9132 61.6934 22.1429C61.0481 22.4218 59.5333 23.3296 58.888 22.657C58.8333 22.6023 58.8005 22.5312 58.7895 22.4491C58.6583 21.2734 59.6755 20.1796 60.7419 19.414C61.1903 19.0913 61.6442 18.8234 62.0216 18.632C62.8747 18.1999 63.9302 18.096 64.4716 19.0804C64.9091 19.8515 63.8372 20.7976 63.2575 21.2241Z" fill="white"/>
</svg>
