<svg width="62" height="52" viewBox="0 0 62 52" fill="none" xmlns="http://www.w3.org/2000/svg">
<path d="M22.9868 9.30165C23.7779 9.22365 24.5767 9.18465 25.3792 9.18465H34.6245C47.2629 9.18465 57.4995 17.9109 57.4995 28.6846C57.4995 39.4584 47.2629 48.1846 34.6245 48.1846H16.7629C16.2101 48.1846 15.8479 47.7134 16.0576 47.2746L17.6589 44.0734C18.7434 41.9222 20.5438 40.0892 22.8375 38.8011C25.1312 37.513 27.8175 36.8263 30.5642 36.8259H35.5586C36.8241 36.8246 38.0633 36.5169 39.1317 35.9387C40.2001 35.3605 41.0539 34.5354 41.5937 33.5596H40.5911C40.3235 33.5572 40.0618 33.6265 39.8428 33.7577C39.6239 33.8889 39.4589 34.0754 39.3711 34.2909C39.332 34.3918 39.2697 34.485 39.1879 34.5651C39.1061 34.6452 39.0064 34.7106 38.8946 34.7575C38.7828 34.8044 38.6611 34.8319 38.5367 34.8383C38.4123 34.8446 38.2877 34.8298 38.1701 34.7946C37.931 34.7224 37.7348 34.5727 37.6242 34.3781C37.5136 34.1834 37.4974 33.9594 37.5792 33.7546C37.6057 33.6883 37.6363 33.6233 37.6707 33.5596H36.8167C36.5491 33.5572 36.2874 33.6265 36.0685 33.7577C35.8496 33.8889 35.6845 34.0754 35.5967 34.2909C35.4632 34.6321 35.082 34.8434 34.7007 34.8434C34.5486 34.8412 34.3993 34.8083 34.2649 34.7475C34.1306 34.6867 34.015 34.5996 33.9276 34.4935C33.8402 34.3873 33.7836 34.265 33.7622 34.1366C33.7409 34.0082 33.7555 33.8773 33.8048 33.7546C34.2623 32.6659 35.4632 31.9346 36.8167 31.9346H42.1637C42.3454 30.8257 42.1412 29.6956 41.5766 28.6846H40.5911C40.3235 28.6822 40.0618 28.7515 39.8428 28.8827C39.6239 29.0139 39.4589 29.2004 39.3711 29.4159C39.3348 29.5184 39.2742 29.6133 39.193 29.695C39.1118 29.7766 39.0117 29.8431 38.8991 29.8904C38.7864 29.9376 38.6636 29.9646 38.5382 29.9696C38.4128 29.9747 38.2875 29.9577 38.1701 29.9196C37.931 29.8474 37.7348 29.6977 37.6242 29.5031C37.5136 29.3084 37.4974 29.0844 37.5792 28.8796C37.6057 28.8133 37.6363 28.7483 37.6707 28.6846H36.8167C36.5491 28.6822 36.2874 28.7515 36.0685 28.8827C35.8496 29.0139 35.6845 29.2004 35.5967 29.4159C35.5585 29.5173 35.4968 29.6111 35.4152 29.6917C35.3335 29.7723 35.2337 29.8381 35.1217 29.8851C35.0096 29.9321 34.8875 29.9594 34.7628 29.9653C34.6381 29.9713 34.5133 29.9557 34.3958 29.9196C34.1566 29.8474 33.9604 29.6977 33.8498 29.5031C33.7392 29.3084 33.723 29.0844 33.8048 28.8796C34.2623 27.7909 35.4632 27.0596 36.8167 27.0596H40.2041C38.9611 26.0273 37.294 25.45 35.5586 25.4509H33.1414L29.6301 29.7246C29.1726 30.2771 28.9248 30.9434 28.9248 31.6096V32.7471C28.9248 33.2021 28.5054 33.5596 27.9717 33.5596C27.4379 33.5596 27.0186 33.2021 27.0186 32.7471V31.6096C27.0186 30.6021 27.3807 29.6271 28.067 28.7821L30.8044 25.4509H27.4227L23.9114 29.7246C23.4539 30.2771 23.2061 30.9434 23.2061 31.6096V32.7471C23.2061 33.2021 22.7867 33.5596 22.2529 33.5596C21.7192 33.5596 21.2998 33.2021 21.2998 32.7471V31.6096C21.2998 30.6021 21.662 29.6271 22.3482 28.7821L25.0856 25.4509H21.7039L18.1926 29.7246C17.7351 30.2771 17.4873 30.9434 17.4873 31.6096V32.7471C17.4873 33.2021 17.0679 33.5596 16.5342 33.5596C16.0004 33.5596 15.5811 33.2021 15.5811 32.7471V31.6096C15.5811 30.6021 15.9432 29.6271 16.6295 28.7821L19.3669 25.4509H15.9795L11.6142 30.7809C11.466 30.9559 11.2432 31.0744 10.9937 31.1108C10.7442 31.1473 10.4878 31.0989 10.2798 30.9759C10.1765 30.9145 10.0885 30.8362 10.021 30.7455C9.95353 30.6549 9.90781 30.5537 9.88653 30.4479C9.86525 30.3421 9.86884 30.2337 9.89707 30.1291C9.92531 30.0245 9.97764 29.9256 10.051 29.8384L13.6443 25.4509H4.81075C4.25794 25.4509 3.93387 24.9146 4.25794 24.5409L5.93544 22.5584C6.62169 21.7296 6.60262 20.6246 5.85919 19.8446L4.41044 18.2846C4.29717 18.165 4.21555 18.0259 4.17116 17.8769C4.12676 17.7279 4.12065 17.5725 4.15323 17.4213C4.18581 17.2701 4.25632 17.1266 4.35993 17.0008C4.46354 16.8749 4.59781 16.7697 4.75356 16.6921L14.3229 11.8984C14.5517 11.7765 14.7804 11.6579 15.0149 11.5441L21.7001 8.0634C24.6709 6.51963 27.9799 5.50868 31.4247 5.09237C34.8695 4.67605 38.3777 4.86313 41.7348 5.64215L46.0048 6.6334C49.4551 7.42965 53.0007 6.94215 56.0126 5.3009C56.2251 5.18484 56.4828 5.14532 56.7294 5.19101C56.9759 5.23671 57.1912 5.36388 57.3279 5.54465C57.6329 5.93465 57.4995 6.4384 57.0611 6.6659C53.5917 8.5509 49.4932 9.11965 45.5282 8.1934L41.2582 7.20215C38.2019 6.49887 35.0118 6.32232 31.8744 6.68281C28.7371 7.04331 25.7156 7.93363 22.9868 9.30165Z" fill="#F8312F"/>
<path d="M16.0771 20.5594C15.2956 20.5594 14.6475 20.0069 14.6475 19.3407V16.9194C14.6475 16.2532 15.2956 15.7007 16.0771 15.7007C16.8587 15.7007 17.5068 16.2532 17.5068 16.9194V19.3407C17.4878 20.0069 16.8587 20.5594 16.0771 20.5594Z" fill="#1C1C1C"/>
<path d="M34.6241 9.18457H32.737C36.7591 9.18457 39.1038 13.0358 36.7973 15.8308L28.9245 25.4346H35.5582C37.3691 25.4346 39.0276 26.0521 40.2285 27.0596H40.362L45.3182 21.2421C48.8448 17.0983 46.462 11.1996 40.667 9.86707C38.7416 9.42832 36.721 9.18457 34.6241 9.18457ZM51.4373 22.4771L41.7345 33.3158C41.2913 34.227 40.5747 35.0229 39.6566 35.6233C38.4953 36.3945 37.0646 36.8121 35.5925 36.8096H30.0873C29.992 36.8096 29.8966 36.8096 29.8013 36.8258C29.7441 36.8258 29.687 36.8258 29.6298 36.8421C29.5154 36.8421 29.382 36.8583 29.2676 36.8746H29.2104C29.077 36.8908 28.9435 36.9071 28.791 36.9071L29.0579 48.1846H34.6241C39.1229 48.1846 43.2976 47.0796 46.8241 45.1783C42.9545 46.2671 41.2007 43.6833 41.2007 43.6833L36.6638 36.8096H48.006C53.2291 36.8096 57.4991 33.2183 57.5182 28.7658V28.6846C57.5182 24.2646 55.7835 20.1858 52.886 16.9196L52.8975 16.9472C53.0233 17.2234 54.0812 19.5212 51.4373 22.4771Z" fill="#FF822D"/>
</svg>
